<svg>
  <symbol xmlns="http://www.w3.org/2000/svg" viewBox="0 0 24 24" id="close-button">
    <g fill="none" stroke="#212b35" stroke-width="1.5">
      <rect width="24" height="24" rx="4" stroke="none"></rect>
      <rect x=".75" y=".75" width="22.5" height="22.5" rx="3.25"></rect>
    </g>
    <path d="M18 6L6 18M6 6l12 12" fill="none" stroke="#212b35" stroke-linecap="round" stroke-width="1.5"></path>
  </symbol>
  <symbol xmlns="http://www.w3.org/2000/svg" viewBox="0 0 24 24" id="compliance">
    <path d="M4.331 16.598l1.815 1.052L8.89 14M4.331 8.598L6.146 9.65 8.89 6" fill="none" stroke="#000" stroke-linecap="round" stroke-linejoin="round" stroke-width="1.5"></path>
    <g fill="none" stroke="#212b35" stroke-width="1.5">
      <rect width="24" height="24" rx="4" stroke="none"></rect>
      <rect x=".75" y=".75" width="22.5" height="22.5" rx="3.25"></rect>
    </g>
    <path d="M20 8h-8m8 8h-8" fill="none" stroke="#212b35" stroke-linecap="round" stroke-width="1.5"></path>
  </symbol>
  <symbol xmlns="http://www.w3.org/2000/svg" viewBox="0 0 25.5 20.997" id="component">
    <g transform="translate(.75 .495)">
      <rect width="24" height="10" rx="2" transform="translate(0 5)" fill="none" stroke="#212b35" stroke-width="1.5"></rect>
      <path d="M18.913 17.655a4.18 4.18 0 003.071 1.365h.012l-.012.979a4.417 4.417 0 01-3.463-1.517 4.027 4.027 0 01-3.151 1.517l.012-.979c1.849-.043 1.813-.4 2.7-1.28V2.151a4.279 4.279 0 00-1.4-.946 4.334 4.334 0 00-1.668-.32h-.012V.062a5.649 5.649 0 012.077.384 4.2 4.2 0 011.448 1.043A4.207 4.207 0 0121.99.019l.012.823h0a4.187 4.187 0 00-3.083 1.309z" fill="#212b35" stroke="#212b35"></path>
      <circle cx="1" cy="1" r="1" transform="translate(3 9)" fill="#212b35"></circle>
      <circle cx="1" cy="1" r="1" transform="translate(8 9)" fill="#212b35"></circle>
      <circle cx="1" cy="1" r="1" transform="translate(13 9)" fill="#212b35"></circle>
    </g>
  </symbol>
  <symbol xmlns="http://www.w3.org/2000/svg" viewBox="0 0 19 16.75" id="desktop">
    <g fill="none" stroke="#212b35" stroke-width="1.5">
      <rect width="19" height="12" rx="2" stroke="none"></rect>
      <rect x=".75" y=".75" width="17.5" height="10.5" rx="1.25"></rect>
    </g>
    <path d="M7.315 12v2.1L5 16h9l-2.315-1.9V12" fill="none" stroke="#212b35" stroke-linecap="round" stroke-linejoin="round" stroke-width="1.5"></path>
  </symbol>
  <symbol xmlns="http://www.w3.org/2000/svg" viewBox="0 0 26.5 17.5" id="email">
    <g transform="translate(.75 .75)" fill="none" stroke="#212b35" stroke-width="1.5">
      <rect width="20.192" height="16" rx="1"></rect>
      <path d="M.78 1.005l9.214 7.274 9.475-7.4" stroke-linejoin="round"></path>
      <circle cx="1.442" cy="1.442" r="1.442" transform="translate(15.385 10)"></circle>
      <circle cx="1.442" cy="1.442" r="1.442" transform="translate(22.115 10)"></circle>
      <circle cx="1.442" cy="1.442" r="1.442" transform="translate(10.577 10)"></circle>
    </g>
  </symbol>
  <symbol xmlns="http://www.w3.org/2000/svg" viewBox="0 0 15.501 22.5" id="exit">
    <g fill="none" stroke="#212b35" stroke-linecap="round" stroke-width="1.5">
      <path d="M.751 7.862V.749h14v21h-14v-7.54" stroke-linejoin="round"></path>
      <path d="M5.751 7.75l4 3.5-4 3.5" stroke-linejoin="round"></path>
      <path d="M8.75 11.25h-8"></path>
    </g>
  </symbol>
  <symbol xmlns="http://www.w3.org/2000/svg" viewBox="0 0 25.5 27.5" id="form">
    <g transform="translate(.75 .75)" fill="none" stroke="#212b35" stroke-width="1.5">
      <rect width="24" height="8.125" rx="2"></rect>
      <rect width="24" height="8.125" rx="2" transform="translate(0 11.375)"></rect>
      <rect width="16" height="3.25" rx="1.625" transform="translate(0 22.75)"></rect>
    </g>
  </symbol>
  <symbol xmlns="http://www.w3.org/2000/svg" viewBox="0 0 13 16" id="pad">
    <path fill="#212b35" d="M1 9h11v1.5H1z"></path>
    <g fill="none" stroke="#212b35" stroke-width="1.5">
      <rect width="13" height="16" rx="2" stroke="none"></rect>
      <rect x=".75" y=".75" width="11.5" height="14.5" rx="1.25"></rect>
    </g>
    <rect width="3" height="1" rx=".5" transform="translate(5 12)" fill="#212b35"></rect>
  </symbol>
  <symbol xmlns="http://www.w3.org/2000/svg" viewBox="0 0 18.121 18.121" id="pen">
    <path d="M14.618 1.671l1.832 1.832a.863.863 0 010 1.22L6.07 15.102l-3.429.488.378-3.54L13.398 1.671a.863.863 0 011.22 0z" fill="none" stroke="#212b35" stroke-linejoin="round" stroke-width="1.5"></path>
    <path d="M4.099 10.941l-.982 1-.374 3.522 3.55-.451 1.021-.985z" fill="#212b35"></path>
  </symbol>
  <symbol xmlns="http://www.w3.org/2000/svg" viewBox="0 0 26.5 28.5" id="phone-field">
    <g transform="translate(.75 .75)">
      <rect width="12.037" height="1.8" rx=".9" transform="translate(1.852 8.1)" fill="#212b35"></rect>
      <rect width="12.037" height="1.8" rx=".9" transform="translate(1.852 11.7)" fill="#212b35"></rect>
      <rect width="15.741" height="27" rx="2" fill="none" stroke="#212b35" stroke-width="1.5"></rect>
      <rect width="4.615" height="1" rx=".5" transform="translate(5.538 23.4)" fill="#212b35"></rect>
      <circle cx="1.389" cy="1.389" r="1.389" transform="translate(11.111 15.3)" fill="none" stroke="#212b35" stroke-width="1.5"></circle>
      <circle cx="1.389" cy="1.389" r="1.389" transform="translate(17.593 15.3)" fill="none" stroke="#212b35" stroke-width="1.5"></circle>
      <circle cx="1.389" cy="1.389" r="1.389" transform="translate(22.222 15.3)" fill="none" stroke="#212b35" stroke-width="1.5"></circle>
    </g>
  </symbol>
  <symbol xmlns="http://www.w3.org/2000/svg" viewBox="0 0 9 16" id="phone">
    <path fill="#212b35" d="M1 9h7v1.5H1z"></path>
    <g fill="none" stroke="#212b35" stroke-width="1.5">
      <rect width="9" height="16" rx="2" stroke="none"></rect>
      <rect x=".75" y=".75" width="7.5" height="14.5" rx="1.25"></rect>
    </g>
    <rect width="3" height="1" rx=".5" transform="translate(3 12)" fill="#212b35"></rect>
  </symbol>
  <symbol xmlns="http://www.w3.org/2000/svg" viewBox="0 0 17.15 20.15" id="redo">
    <g fill="#c3cfd8">
      <path d="M13.65 19.5h-5a8 8 0 010-16h5v1h-5a7 7 0 000 14h5v1z" stroke="#c3cfd8" stroke-width="1.3"></path>
      <path d="M17.15 4l-5 4V0z"></path>
    </g>
  </symbol>
  <symbol xmlns="http://www.w3.org/2000/svg" viewBox="0 0 24 24" id="text">
    <g fill="none" stroke="#212b35" stroke-width="1.5">
      <rect width="24" height="24" rx="4" stroke="none"></rect>
      <rect x=".75" y=".75" width="22.5" height="22.5" rx="3.25"></rect>
    </g>
    <path d="M12 18.001v-12M6 6h12" fill="none" stroke="#212b35" stroke-linecap="round" stroke-width="1.5"></path>
  </symbol>
  <symbol xmlns="http://www.w3.org/2000/svg" viewBox="0 0 25.5 25.5" id="theme">
    <g fill="none" stroke="#212b35" stroke-width="1.5">
      <path d="M2.75.75h10v24h0-10a2 2 0 01-2-2v-20a2 2 0 012-2zm10 0h10a2 2 0 012 2v14h0-12 0v-16h0zm0 16h12v6a2 2 0 01-2 2h-10 0v-8h0z"></path>
      <path d="M12.75 16.75h5.6v8h-5.6z"></path>
    </g>
  </symbol>
  <symbol xmlns="http://www.w3.org/2000/svg" viewBox="0 0 19.3 20.3" id="trash">
    <g transform="translate(.65 .65)">
      <path d="M0 3h18m-2 0v14a2 2 0 01-2 2H4a2 2 0 01-2-2V3m3 0h0c0-1.1.349-3 2-3h4c1.546 0 2 1.9 2 3h0" fill="none" stroke="#000" stroke-linecap="round" stroke-linejoin="round" stroke-width="1.3"></path>
      <rect width="1" height="10" rx=".5" transform="translate(11 6)"></rect>
      <rect width="1" height="10" rx=".5" transform="translate(6 6)"></rect>
    </g>
  </symbol>
  <symbol xmlns="http://www.w3.org/2000/svg" viewBox="0 0 17.15 20.15" id="undo">
    <path d="M3.5 3.5h5a8 8 0 010 16h-5v-1h5a7 7 0 000-14h-5v-1z" fill="#212b35" stroke="#212b35" stroke-width="1.3"></path>
    <path d="M0 4l5-4v8z" fill="#212b35"></path>
  </symbol>
  <symbol xmlns="http://www.w3.org/2000/svg" viewBox="0 0 25.5 25.685" id="button">
    <g transform="translate(.75 .75)" stroke="#212b35" stroke-width="1.5">
      <rect width="24" height="9.455" rx="2" fill="none"></rect>
      <path d="M19.371 11.17a1.714 1.714 0 01.565.102 1.744 1.744 0 01.49.275 1.7 1.7 0 01.373.415 1.661 1.661 0 01.223.521l.788 3.36a4.856 4.856 0 01.056 2.021 5.109 5.109 0 01-.708 1.822 5.229 5.229 0 01-1.356 1.43 5.06 5.06 0 01-1.871.844 5.971 5.971 0 01-2.465.066 6.8 6.8 0 01-2.295-.907l-5.103-3.124a1.71 1.71 0 01-.509-.474 1.752 1.752 0 01-.285-.625 1.7 1.7 0 01-.021-.703 1.753 1.753 0 01.245-.628 1.791 1.791 0 011.119-.782 1.822 1.822 0 01.705-.025 1.9 1.9 0 01.658.24c.193.115.385.231.577.35s.383.238.575.351L9.136 7.18a1.874 1.874 0 01-.034-.696 1.728 1.728 0 01.216-.629 1.667 1.667 0 01.448-.497 1.693 1.693 0 01.65-.293 1.717 1.717 0 01.688-.02 1.74 1.74 0 01.618.232 1.709 1.709 0 01.482.445 1.646 1.646 0 01.284.615l1.1 4.731z" fill="#fff" stroke-miterlimit="10"></path>
    </g>
  </symbol>
  <symbol xmlns="http://www.w3.org/2000/svg" viewBox="0 0 24 24" id="checkbox">
    <path d="M6.483 13.216l4.676 2.842L18.12 6.4" fill="none" stroke="#000" stroke-linecap="round" stroke-linejoin="round" stroke-width="1.5"></path>
    <g fill="none" stroke="#212b35" stroke-width="1.5">
      <rect width="24" height="24" rx="4" stroke="none"></rect>
      <rect x=".75" y=".75" width="22.5" height="22.5" rx="3.25"></rect>
    </g>
  </symbol>
  <symbol xmlns="http://www.w3.org/2000/svg" viewBox="0 0 407.437 407.437" id="arrow-down">
    <polygon points="386.258,91.567 203.718,273.512 21.179,91.567 0,112.815 203.718,315.87 407.437,112.815 "/>
  </symbol>
  <symbol xmlns="http://www.w3.org/2000/svg" viewBox="0 0 31.49 31.49" id="right-arrow">
    <path d="M21.205,5.007c-0.429-0.444-1.143-0.444-1.587,0c-0.429,0.429-0.429,1.143,0,1.571l8.047,8.047H1.111
	C0.492,14.626,0,15.118,0,15.737c0,0.619,0.492,1.127,1.111,1.127h26.554l-8.047,8.032c-0.429,0.444-0.429,1.159,0,1.587
	c0.444,0.444,1.159,0.444,1.587,0l9.952-9.952c0.444-0.429,0.444-1.143,0-1.571L21.205,5.007z"/>
  </symbol>
</svg>